<svg xmlns="http://www.w3.org/2000/svg" width="37" height="37" viewBox="0 0 37 37">
    <g fill="none" fill-rule="evenodd">
        <circle cx="18.5" cy="18.5" r="18.5" fill="#6098D0"/>
        <path fill="#FFF" fill-rule="nonzero" d="M25.464 18H11.522c-.293 0-.522.403-.522.87 0 .467.242.87.522.87h13.956c.293 0 .522-.403.522-.87 0-.467-.243-.87-.536-.87z"/>
        <path fill="#FFF" fill-rule="nonzero" d="M19.37 25.834V11.892c0-.293-.403-.522-.87-.522-.467 0-.87.242-.87.522v13.956c0 .293.403.522.87.522.467 0 .87-.243.87-.536z"/>
    </g>
</svg>
