<svg xmlns="http://www.w3.org/2000/svg" width="24" height="27" viewBox="0 0 24 27">
    <g fill="#46A98A" fill-rule="nonzero" stroke="#46A98A" stroke-width=".6">
        <path d="M14.852 19.774c2.106-3.495 4.77-8.408 4.77-10.934 0-4.26-3.464-7.725-7.724-7.725S4.173 4.58 4.173 8.84c0 2.525 2.664 7.438 4.771 10.934-2.5.188-8.189.867-8.189 3.117 0 2.215 5.776 3.225 11.148 3.225 5.367 0 11.147-1.01 11.147-3.225-.004-2.25-5.698-2.929-8.198-3.117zM5.24 8.84c0-3.674 2.99-6.663 6.658-6.663 3.673 0 6.664 2.989 6.664 6.663 0 3.209-5.112 11.26-6.664 13.627C10.347 20.1 5.24 12.049 5.24 8.84zm6.658 16.209c-6.525 0-10.082-1.429-10.082-2.163 0-.566 2.347-1.786 7.755-2.097 1.016 1.638 1.786 2.795 1.888 2.934.138.184.541.402.883 0 .107-.128.872-1.296 1.888-2.934 5.408.311 7.755 1.525 7.755 2.097-.006.739-3.561 2.163-10.087 2.163z"/>
        <path d="M15.26 8.84a3.363 3.363 0 1 0-6.725.001 3.363 3.363 0 0 0 6.725-.001zm-5.663 0a2.3 2.3 0 1 1 4.602 0 2.3 2.3 0 0 1-4.602 0z"/>
    </g>
</svg>
