<svg xmlns="http://www.w3.org/2000/svg" xmlns:xlink="http://www.w3.org/1999/xlink" width="20" height="24" viewBox="0 0 20 24">
    <defs>
        <path id="a" d="M0 .222h19.765V24H0z"/>
    </defs>
    <g fill="none" fill-rule="evenodd">
        <mask id="b" fill="#fff">
            <use xlink:href="#a"/>
        </mask>
        <path fill="#706F6F" stroke="#706F6F" stroke-width=".5" d="M17.487 18.56a.322.322 0 0 1-.322.322H4.69a.322.322 0 0 1-.323-.322V1.833c0-.177.144-.322.323-.322h12.476c.177 0 .322.145.322.322V18.56zM14.41 21.2a.323.323 0 0 1-.322.322H1.611a.323.323 0 0 1-.322-.322V4.473c0-.178.145-.322.322-.322h1.466V18.56c0 .888.723 1.61 1.612 1.61h9.721v1.03zM17.165.222H4.69c-.889 0-1.612.723-1.612 1.611v1.029H1.611C.723 2.862 0 3.585 0 4.473V21.2c0 .888.722 1.61 1.61 1.61h12.477c.889 0 1.61-.722 1.61-1.61v-1.03h1.467c.889 0 1.611-.722 1.611-1.61V1.833c0-.888-.722-1.61-1.61-1.61z" mask="url(#b)"/>
        <path fill="#706F6F" d="M15.232 4.435H6.448c-.33 0-.598.304-.598.679 0 .374.267.678.598.678h8.784c.33 0 .599-.304.599-.678 0-.375-.268-.679-.599-.679M15.232 7.664H6.448c-.33 0-.598.304-.598.678 0 .375.267.678.598.678h8.784c.33 0 .599-.303.599-.678 0-.374-.268-.678-.599-.678M15.232 10.892H6.448c-.33 0-.598.304-.598.679 0 .374.267.678.598.678h8.784c.33 0 .599-.304.599-.678 0-.375-.268-.679-.599-.679M15.232 14.121H6.448c-.33 0-.598.304-.598.678 0 .375.267.679.598.679h8.784c.33 0 .599-.304.599-.679 0-.374-.268-.678-.599-.678" mask="url(#b)"/>
    </g>
</svg>
