<svg xmlns="http://www.w3.org/2000/svg" width="25" height="24" viewBox="0 0 25 24">
    <path fill="#46A98A" fill-rule="nonzero" stroke="#46A98A" stroke-width=".2" d="M9.922 13.062a.836.836 0 1 0-1.671 0 .836.836 0 0 0 1.671 0zm12.172-1.727c-.067 0-.135.003-.201.009a9.501 9.501 0 0 0-5.026-6.802 3.658 3.658 0 0 0 2.05-3.283.702.702 0 1 0-1.406 0c0 .921-.557 1.714-1.351 2.061a3.637 3.637 0 0 0 .639-2.061.703.703 0 1 0-1.406 0 2.25 2.25 0 0 1-2.249 2.248h-.578c-4.665 0-8.552 3.391-9.328 7.836a2.474 2.474 0 0 0-2.673 2.462 2.473 2.473 0 0 0 2.573 2.468 6.195 6.195 0 0 0 6.145 5.472 4.96 4.96 0 0 0 3.313 1.254 4.97 4.97 0 0 0 3.314-1.254 6.195 6.195 0 0 0 6.082-5.472c.034.001.067.003.102.003a2.473 2.473 0 0 0 2.471-2.471 2.473 2.473 0 0 0-2.471-2.47zM3.097 12.976v1.893l-.061.002a1.066 1.066 0 0 1 0-2.129l.063.002a17.79 17.79 0 0 0-.002.232zm17.531 2.584a4.785 4.785 0 0 1-4.965 4.775.701.701 0 0 0-.523.206 3.574 3.574 0 0 1-2.542 1.053 3.577 3.577 0 0 1-2.545-1.055.704.704 0 0 0-.498-.206h-.034a4.785 4.785 0 0 1-5.017-4.773v-2.584c0-4.445 3.617-8.062 8.062-8.062 4.445 0 8.062 3.617 8.062 8.062v2.584zm1.466-.689l-.061-.002v-1.893a9.05 9.05 0 0 0-.003-.233l.063-.002a1.065 1.065 0 0 1 .001 2.13zm-6.653 1.166l-.51.389a3.92 3.92 0 0 1-2.366.8 3.92 3.92 0 0 1-2.366-.8l-.509-.389a.703.703 0 0 0-.853 1.117l.509.389a5.331 5.331 0 0 0 3.219 1.088c1.157 0 2.3-.386 3.219-1.088l.51-.389a.703.703 0 0 0-.853-1.117zm.605-3.811a.836.836 0 1 0 0 1.673.836.836 0 0 0 0-1.673z"/>
</svg>
