<svg xmlns="http://www.w3.org/2000/svg" width="24" height="25" viewBox="0 0 24 25">
    <g fill="none" fill-rule="evenodd">
        <path fill="#46A98A" d="M17.294 2.778c-5.028-.224-10.472-.032-15.66-.097-.225 6.247-.033 12.906-.097 19.312 1.646.354 3.123.192 5.285.192 1.49 0 4.645-.437 4.707.672.07 1.263-3.764.77-5.092.77-2.286 0-5.493.43-6.15-.77-.484-.887-.19-3.299-.19-5.091V7.294c0-2.358-.694-5.87 1.632-6.148 3.445-.416 8.52 0 12.78 0 1.502 0 3.186-.043 3.745.48.91.849.481 4.495.481 6.34v3.459c0 1.03.337 2.633-.673 2.69-1.288.072-.768-4.116-.768-5.285V2.778z"/>
        <path fill="#46A98A" d="M8.359 12.77c2.218.63 5.327-.594 5.284-3.94-.034-2.59-2.172-4.291-4.804-3.842-3.883.663-4.446 6.657-.48 7.782m.48-8.839c3.168-.465 5.84 1.633 5.86 4.899.02 3.184-2.634 5.433-5.764 5.092-2.521-.273-4.415-2.705-4.42-4.995-.001-1.065.64-2.578.77-2.786.636-1.028 1.892-1.966 3.554-2.21"/>
        <path fill="#46A98A" d="M6.341 8.543c1.16-.129 1.538 1.253 2.402 1.729 1.257-.889 2.342-1.95 3.555-2.882 1.714.477-.375 1.58-1.25 2.306-.671.558-1.364 1.791-2.497 1.633-.689-.097-1.136-.97-1.44-1.248-.432-.395-1.322-.72-.77-1.538M11.722 17.381c-.79 1.34.901 3.676 2.017 4.804.87.88 2.067 1.797 3.171 1.633.217-2.805-2.665-5.85-5.188-6.437m7.493 3.843c.327-2.015-4.407-7.697-6.244-4.515 2.294 1.293 4.005 3.168 4.9 5.86.546-.239 1.244-.728 1.344-1.345m3.94-6.82c.029-.654-.504-1.288-1.25-1.25-1.491.078-2.15 3.405-3.94 3.459.192.64.511 1.154 1.154 1.345.331-1.72 3.963-1.997 4.035-3.555m-1.73-2.017c1.289-.454 2.804.642 2.595 2.306-.28 2.223-3.698 1.71-4.132 4.034-.172.93.468 1.716.288 2.787-.17 1.017-2.587 3.146-3.17 3.266-1.868.387-3.704-1.653-4.515-2.594-.766-.889-2.564-3.097-1.921-4.9.278-.781 1.181-1.08 1.73-1.44.482-.32 1.327-1.091 2.016-1.153 1.198-.108 1.833.984 2.786 1.056 2.558.195 2.18-2.941 4.323-3.362M3.267 16.132c.072-1.229 2.128-.768 4.132-.768 1.104 0 3.2-.251 3.265.48.086.949-2.741.577-3.554.577-1.529 0-3.059.201-3.843-.289M9.223 18.727c-.038 1.047-1.726.672-2.786.672-1.218 0-2.596.19-3.17-.289-.022-.341.065-.575.288-.672h2.978c1.016 0 2.083-.216 2.69.289"/>
    </g>
</svg>
