<svg xmlns="http://www.w3.org/2000/svg" width="26" height="21" viewBox="0 0 26 21">
    <g fill="#706F6F" fill-rule="evenodd">
        <path stroke="#575656" d="M18.324 7.435c-2.607 2.272-5.634 5.181-5.672 5.22a.484.484 0 0 0-.142.346c0 .13.05.254.143.347a.503.503 0 0 0 .694 0c.214-.216 2.869-3.302 4.977-5.913M13 14.319A1.313 1.313 0 0 1 11.682 13c0-.352.138-.685.386-.933.057-.057 6.02-5.788 8.49-7.505a.414.414 0 0 1 .576.576c-1.631 2.349-6.893 8.482-7.2 8.792-.25.25-.582.388-.934.388"/>
        <path stroke="#706F6F" d="M12.095 5.04a.414.414 0 0 1-.414-.413V3.265a.414.414 0 0 1 .828 0v1.362a.414.414 0 0 1-.414.414M5.096 10.581a.423.423 0 0 1-.18-.04l-1.263-.607a.415.415 0 0 1 .358-.747l1.264.607a.415.415 0 0 1-.18.787"/>
        <path stroke="#706F6F" d="M4.13 20.248c-.443 0-.852-.22-1.097-.587A11.947 11.947 0 0 1 1 13c0-3.205 1.248-6.218 3.515-8.485A11.922 11.922 0 0 1 13 1c1.717 0 3.377.357 4.933 1.058a.415.415 0 0 1-.341.755A11.087 11.087 0 0 0 13 1.827 11.102 11.102 0 0 0 5.1 5.1 11.103 11.103 0 0 0 1.828 13c0 2.205.654 4.35 1.893 6.2a.497.497 0 0 0 .624.17l1.856-.904a.413.413 0 1 1 .362.743l-1.856.906c-.18.087-.374.133-.578.133M21.87 20.248c-.191 0-.386-.044-.564-.126l-1.903-.907a.414.414 0 1 1 .355-.746l1.9.904c.217.099.49.025.622-.171A11.133 11.133 0 0 0 24.172 13c0-1.6-.33-3.144-.985-4.592a.414.414 0 0 1 .755-.341A11.922 11.922 0 0 1 25 13c0 2.368-.702 4.672-2.032 6.662a1.318 1.318 0 0 1-1.098.586"/>
    </g>
</svg>
