<svg xmlns="http://www.w3.org/2000/svg" width="22" height="24" viewBox="0 0 22 24">
    <g fill="#6098D0" fill-rule="nonzero" stroke="#6098D0" stroke-width=".3">
        <path d="M15.262 8.153l-1.8-.066-.39 10.662 1.8.066zM9.978 8.118h1.802V18.78H9.978zM8.685 18.749L8.294 8.087l-1.8.064.39 10.664zM13.821.22H7.934c-.828 0-1.5.674-1.5 1.502v2.853h1.8V2.022h5.287v2.553h1.803V1.722c0-.828-.675-1.502-1.503-1.502z"/>
        <path d="M.155 3.675v1.802h1.878l1.49 16.927a.902.902 0 0 0 .899.822h12.883a.9.9 0 0 0 .897-.822l1.49-16.927H21.6V3.675H.155zM16.48 21.423H5.247L3.844 5.475h14.04L16.48 21.423z"/>
    </g>
</svg>
