<svg xmlns="http://www.w3.org/2000/svg" width="22" height="26" viewBox="0 0 22 26">
    <g fill="#6098D0" fill-rule="nonzero" stroke="#6198D0" stroke-width=".5">
        <path d="M20.286 23.5H1.696a.7.7 0 0 0-.696.697.71.71 0 0 0 .697.696h18.606a.7.7 0 0 0 .697-.696.715.715 0 0 0-.714-.697zM1.02 16.03L1 20.155c0 .232.085.465.254.635.168.17.38.254.613.254l4.101-.021a.845.845 0 0 0 .613-.254L20.746 6.603a.892.892 0 0 0 0-1.248l-4.059-4.101a.892.892 0 0 0-1.247 0l-2.833 2.853L1.275 15.418a.943.943 0 0 0-.254.613zM16.076 3.114l2.853 2.854-1.606 1.606-2.854-2.853 1.607-1.607zM2.776 16.411L13.221 5.968l2.854 2.854L5.63 19.245l-2.875.02.021-2.854z"/>
    </g>
</svg>
