<svg xmlns="http://www.w3.org/2000/svg" width="31" height="23" viewBox="0 0 31 23">
    <g fill="none" fill-rule="evenodd" stroke="#767676" stroke-linecap="round" stroke-linejoin="round" stroke-width="1.5">
        <path d="M19.805 11.337l5.566 5.22M6.128 16.558l5.567-5.221M28.331 22.25H3.17A2.422 2.422 0 0 1 .75 19.83V3.341A2.42 2.42 0 0 1 3.17.922H28.33a2.42 2.42 0 0 1 2.42 2.419V19.83a2.422 2.422 0 0 1-2.42 2.42z"/>
        <path d="M29.933 2.557L17.526 13.374a2.698 2.698 0 0 1-1.776.643 2.706 2.706 0 0 1-1.775-.641L1.553 2.539"/>
    </g>
</svg>
