<?xml version="1.0" encoding="UTF-8"?>
<!-- Generator: Adobe Illustrator 15.0.0, SVG Export Plug-In . SVG Version: 6.00 Build 0)  -->
<!DOCTYPE svg PUBLIC "-//W3C//DTD SVG 1.1//EN" "http://www.w3.org/Graphics/SVG/1.1/DTD/svg11.dtd">
<svg version="1.1" id="Layer_1" xmlns="http://www.w3.org/2000/svg" xmlns:xlink="http://www.w3.org/1999/xlink" x="0px" y="0px" width="26.504px" height="17.209px" viewBox="3.246 28.198 26.504 17.209" enable-background="new 3.246 28.198 26.504 17.209" xml:space="preserve">
<g id="Layer_1_1_">
</g>
<g id="Layer_2">
	<g>
		<path fill="#757575" d="M15.748,14.412c-0.921,0-1.876-0.102-2.86-0.332l0.227-0.974c7.186,1.676,12.975-4.219,14.279-5.681    c-1.427-1.555-2.899-2.815-4.385-3.752l0.533-0.847c1.666,1.053,3.313,2.484,4.893,4.257l0.279,0.314l-0.263,0.33    C28.21,8.034,23.034,14.411,15.748,14.412z"/>
	</g>
	<g>
		<path fill="#757575" d="M8.386,12.139C6.721,11.075,5.083,9.622,3.517,7.82L3.246,7.508l0.256-0.325    C3.568,7.1,10.16-1.121,18.93,0.866l-0.221,0.977C11.499,0.205,5.831,6.04,4.556,7.486c1.416,1.582,2.884,2.863,4.369,3.811    L8.386,12.139z"/>
	</g>
	<g>
		
			<rect x="15.304" y="-3.919" transform="matrix(-0.712 -0.7022 0.7022 -0.712 22.2693 23.9864)" fill="#757575" width="1.501" height="22.69"/>
	</g>
	<g>
		<path fill="#757575" d="M16.059,11.426v-1c1.654,0,3-1.347,3-3h1C20.059,9.631,18.264,11.426,16.059,11.426z"/>
	</g>
	<g>
		<path fill="#757575" d="M13.059,7.425h-1c0-2.206,1.794-4,4-4v1C14.404,4.426,13.059,5.771,13.059,7.425z"/>
	</g>
	<g>
		<path fill="#757575" d="M15.712,42.407c-4.296,0-8.399-2.216-12.195-6.587l-0.271-0.313l0.256-0.325    c0.213-0.271,5.305-6.63,12.643-6.63c4.293,0,8.429,2.197,12.291,6.531l0.279,0.315l-0.263,0.329    C28.234,36.001,23.048,42.407,15.712,42.407z M4.556,35.486c3.517,3.931,7.268,5.922,11.157,5.922    c5.941,0,10.538-4.697,11.684-5.979c-3.578-3.898-7.361-5.874-11.25-5.874C10.191,29.553,5.675,34.216,4.556,35.486z"/>
	</g>
	<g>
		<path fill="#757575" d="M16.059,39.325c-1.931,0-3.5-1.569-3.5-3.5c0-1.93,1.57-3.5,3.5-3.5c1.93,0,3.5,1.57,3.5,3.5    C19.559,37.756,17.988,39.325,16.059,39.325z M16.059,33.325c-1.378,0-2.5,1.121-2.5,2.5s1.121,2.5,2.5,2.5    c1.379,0,2.5-1.121,2.5-2.5S17.438,33.325,16.059,33.325z"/>
	</g>
</g>
</svg>