<svg xmlns="http://www.w3.org/2000/svg" width="26" height="22" viewBox="0 0 26 22">
    <path fill="#706F6F" fill-rule="nonzero" stroke="#706F6F" stroke-width=".5" d="M25.511 15.701L19.618 5.246a.484.484 0 0 0-.208-.197l-3.33-1.663a.48.48 0 0 0-.297-.043c-.587-1.313-1.598-2.39-3.261-2.39-1.9 0-3.072.908-3.768 2.036a4.811 4.811 0 0 0-1.047-.118 4.82 4.82 0 0 0-4.814 4.813c0 1.186.433 2.271 1.146 3.11L.687 18.476c-.417.958.05 2.089 1.043 2.52l.149.065a1.977 1.977 0 0 0 1.482.053c.488-.18.869-.535 1.074-1.002l.515-1.18-.16-.088a.49.49 0 1 1 .463-.864l.091.05.616-1.412-.224-.121a.49.49 0 1 1 .464-.863l.154.083.585-1.343-.048-.025a.49.49 0 0 1 .44-.872l.428-.98a4.818 4.818 0 0 0 4.763-4.812c0-1.939-1.156-3.61-2.811-4.371.534-.763 1.398-1.38 2.81-1.38 1.245 0 1.97.861 2.394 1.86l-1.754.989a.49.49 0 0 0-.25.408l-.142 3.621a.49.49 0 0 0 .063.26l5.894 10.455a.491.491 0 0 0 .667.187l5.93-3.342a.49.49 0 0 0 .232-.296.488.488 0 0 0-.044-.375zM3.536 19.72a.878.878 0 0 1-.51.471c-.242.09-.51.078-.754-.028l-.15-.065c-.495-.217-.735-.767-.534-1.228L4.8 11.51c.561.428 1.216.74 1.932.888L3.536 19.72zM11.54 7.683a3.836 3.836 0 0 1-4.236 3.81l-.167-.025a3.806 3.806 0 0 1-1.932-.889 3.821 3.821 0 0 1-1.329-2.896 3.837 3.837 0 0 1 3.832-3.832c.204 0 .403.02.597.052-.13.338-.227.677-.295 1.006-.675.16-1.18.765-1.18 1.487 0 .845.687 1.533 1.532 1.533a1.528 1.528 0 1 0 .635-2.923c.058-.26.14-.54.253-.827a3.833 3.833 0 0 1 2.29 3.504zM8.362 6.654c.27 0 .49-.22.49-.49 0-.04.005-.295.053-.653a1.04 1.04 0 0 1-.543 1.927A1.043 1.043 0 0 1 7.32 6.396c0-.415.246-.77.597-.939-.03.252-.045.491-.045.705 0 .273.22.492.49.492zm7.149.164c.001.27.22.49.491.49h.001c.27 0 .49-.22.49-.491 0-.152-.006-.318-.017-.49a.68.68 0 0 1-.474 1.173.683.683 0 0 1-.683-.683.67.67 0 0 1 .172-.446c.02.269.02.438.02.447zm3.83 11.799L13.754 8.71l.127-3.208 1.348-.76c.114.451.182.885.222 1.238a1 1 0 0 0-.454.837c0 .554.45 1.004 1.003 1.004.554 0 1.005-.45 1.005-1.004 0-.394-.231-.733-.563-.897a9.564 9.564 0 0 0-.243-1.379l2.636 1.317 5.579 9.897-5.075 2.862z"/>
</svg>
