<svg xmlns="http://www.w3.org/2000/svg" width="24" height="28" viewBox="0 0 24 28">
    <g fill="none" fill-rule="evenodd">
        <path fill="#46A98A" fill-rule="nonzero" stroke="#46A98A" stroke-width=".4" d="M11.448 17.05h2.09v.975h-1.885c.084.193.126.386.126.58 0 .381-.092.785-.275 1.21-.183.426-.485.861-.905 1.304.349-.096.667-.145.955-.145.367 0 .78.055 1.24.165.762.18 1.277.27 1.547.27.327 0 .752-.123 1.274-.369L16 22.126a6.54 6.54 0 0 1-.945.336 2.912 2.912 0 0 1-1.231.026c-.12-.021-.406-.101-.86-.24-.453-.138-.746-.22-.879-.246a3.707 3.707 0 0 0-.623-.053c-.319 0-.658.055-1.019.165-.36.11-.689.259-.985.447L9 21.423a3.13 3.13 0 0 0 1.082-.998c.296-.432.444-.96.444-1.583a3.1 3.1 0 0 0-.112-.816h-1.3v-.975h1.02a10.85 10.85 0 0 1-.278-1.076 3.833 3.833 0 0 1-.06-.662c0-.913.341-1.626 1.022-2.14.549-.408 1.212-.612 1.991-.612.8 0 1.46.219 1.98.655.52.437.84 1.05.96 1.84l-1.188.178c-.067-.527-.265-.941-.594-1.244a1.69 1.69 0 0 0-1.185-.454c-.49 0-.899.157-1.224.47a1.52 1.52 0 0 0-.488 1.136c0 .487.126 1.123.378 1.909z"/>
        <path fill="#46A98A" fill-rule="nonzero" stroke="#46A98A" stroke-width=".4" d="M22.197 15.882a19.193 19.193 0 0 0-2.903-4.654 21.575 21.575 0 0 0-3.716-3.532l2.846-5.28a.661.661 0 0 0-.123-.792C17.564.904 16.784.553 15.913.553c-.798 0-1.528.3-2.165.568-.502.207-.977.407-1.361.407a.856.856 0 0 1-.319-.056C10.74.987 9.718.686 8.731.686c-1.25 0-2.316.502-3.36 1.574a.675.675 0 0 0-.077.837l3.07 4.638c-.76.564-2.21 1.746-3.667 3.493-1.222 1.468-2.198 3.036-2.902 4.654a15.826 15.826 0 0 0-1.328 6.317 5.204 5.204 0 0 0 5.196 5.196H18.33a5.203 5.203 0 0 0 5.196-5.196 15.878 15.878 0 0 0-1.33-6.317zM6.72 2.817c.647-.558 1.267-.803 2.008-.803.793 0 1.686.266 2.875.708.245.089.508.133.775.133.653 0 1.278-.257 1.875-.507.574-.24 1.121-.469 1.652-.469.257 0 .619.045 1.078.368l-2.68 4.978H9.64L6.721 2.817zm11.608 23.238H5.661a3.86 3.86 0 0 1-3.856-3.857c0-3.577 1.311-6.97 3.89-10.084a20.506 20.506 0 0 1 3.789-3.55h5.01c.508.352 2.16 1.58 3.79 3.55 2.584 3.114 3.89 6.502 3.89 10.084a3.844 3.844 0 0 1-3.845 3.857z"/>
    </g>
</svg>
