<svg xmlns="http://www.w3.org/2000/svg" width="30" height="32" viewBox="0 0 30 32">
    <g fill="none" fill-rule="evenodd" stroke="#767676" stroke-linecap="round" stroke-linejoin="round" stroke-width="1.5">
        <path d="M.273 20c-.088.081-.179.162-.273.245M3.426 12C3.19 15.068 3.031 16.609 2 18.092M25 10c.021.084.051.212.089.383M26 13c.336 3.899.957 6.139 3.579 8.318M25.076 22.723H17.47h7.606zm-1.89-3.052H20.32h2.867zm-13.2 7.628h9.02-9.02zm4.53-26.8c1.16 0 2.102.943 2.102 2.102a2.104 2.104 0 0 1-2.102 2.1c-1.158 0-2.1-.942-2.1-2.1 0-1.16.942-2.101 2.1-2.101zm-2.268 4.285h4.495c3.57.95 6.312 4.103 6.608 7.95.398 5.187 1.644 8.42 3.703 9.608a1.912 1.912 0 0 1 .735.803c.187.353.317.793.385 1.308.09.675.116 2.09-.416 2.623a.762.762 0 0 1-.539.223h-8.14a4.653 4.653 0 0 1-4.584 3.885 4.655 4.655 0 0 1-4.584-3.885H1.772a.762.762 0 0 1-.539-.223c-.532-.532-.505-1.947-.416-2.621.136-1.04.524-1.77 1.12-2.113 2.058-1.188 3.305-4.421 3.703-9.607.295-3.848 3.04-7 6.608-7.951z"/>
    </g>
</svg>
