<svg xmlns="http://www.w3.org/2000/svg" width="26" height="22" viewBox="0 0 26 22">
    <g fill="#46A98A" fill-rule="nonzero">
        <path d="M24.026 5.585c-.796-1.339-1.913-2.613-2.668-3.282C19.711.844 18.337.879 17.664 1.031a2.537 2.537 0 0 0-.771.308C15.719.468 14.291.041 12.564.041c-1.727 0-3.156.427-4.33 1.298a2.552 2.552 0 0 0-.771-.308C6.791.88 5.416.844 3.769 2.303c-.755.669-1.873 1.943-2.668 3.282C.023 7.398-.216 8.865.388 9.945c.737 1.318 1.856 1.656 2.759 1.739a11.405 11.405 0 0 0-.359 2.934c0 1.523.347 2.833 1.03 3.895.601.933 1.467 1.681 2.572 2.221 2.043.999 4.501 1.114 6.173 1.114 1.671 0 4.13-.115 6.173-1.114 1.105-.54 1.971-1.288 2.572-2.221.684-1.062 1.03-2.372 1.03-3.895 0-1.149-.138-2.071-.359-2.934.903-.083 2.021-.421 2.76-1.739.605-1.078.364-2.546-.713-4.36zM3.622 10.178c-.799-.021-1.449-.176-1.898-.979-.305-.545-.052-1.578.693-2.832.708-1.191 1.723-2.348 2.367-2.919 1.064-.942 1.861-.994 2.236-.944-1.116 1.361-1.801 3.131-2.373 4.85a49.13 49.13 0 0 1-.687 1.909c-.117.315-.231.617-.338.915zm7.944 5.018c-.396-.396-.603-.812-.603-1.018 0-.184.031-.196.148-.246.334-.141.989-.156 1.453-.156.464 0 1.119.016 1.452.156.117.049.148.062.148.246 0 .206-.207.621-.603 1.018-.39.389-.805.599-.999.599-.192-.001-.607-.211-.996-.599zm6.498 4.163c-1.174.574-2.729.886-4.735.947v-3.135c.601-.231 1.09-.669 1.315-.894.315-.316 1.052-1.153 1.052-2.1 0-.773-.386-1.361-1.086-1.656-.467-.196-1.06-.276-2.046-.276-.987 0-1.58.08-2.046.276-.7.295-1.085.883-1.085 1.656 0 .946.735 1.783 1.052 2.1.225.225.714.662 1.315.894v3.135c-2.007-.062-3.562-.373-4.736-.947-1.847-.902-2.744-2.453-2.744-4.74 0-1.956.451-3.157 1.075-4.817.215-.574.459-1.224.706-1.964 1.353-4.063 2.784-6.267 6.465-6.267s5.111 2.203 6.464 6.267c.246.74.49 1.39.706 1.964.624 1.66 1.075 2.861 1.075 4.817-.002 2.287-.9 3.838-2.747 4.74zM23.404 9.2c-.449.803-1.1.957-1.898.979-.107-.298-.221-.601-.339-.915-.221-.589-.449-1.196-.687-1.909-.572-1.719-1.257-3.488-2.373-4.85.375-.05 1.173.002 2.236.944.645.571 1.659 1.728 2.367 2.918.746 1.255.999 2.288.694 2.833z"/>
        <path d="M10.018 8.174a1.01 1.01 0 0 0-1.004 1.017c0 .562.451 1.018 1.004 1.018.554 0 1.004-.456 1.004-1.018a1.01 1.01 0 0 0-1.004-1.017zM15.102 8.166c-.559 0-1.012.459-1.012 1.025 0 .565.453 1.024 1.012 1.024.559 0 1.012-.459 1.012-1.024 0-.566-.453-1.025-1.012-1.025z"/>
    </g>
</svg>
