<svg xmlns="http://www.w3.org/2000/svg" width="25" height="30" viewBox="0 0 25 30">
    <path fill="none" fill-rule="evenodd" stroke="#767676" stroke-width="1.5" d="M2.197 30h19.996c1.209 0 2.198-.99 2.198-2.198v-13.2a2.203 2.203 0 0 0-2.198-2.196h-1.547V8.45c0-4.658-3.793-8.45-8.451-8.45S3.743 3.792 3.743 8.45v3.956H2.197A2.202 2.202 0 0 0 0 14.602v13.2C0 29.01.988 30 2.197 30zm17.756-17.594H4.437h15.516zm-7.758 7.45c.86 0 1.561.698 1.561 1.558 0 .858-.702 1.56-1.56 1.56a1.564 1.564 0 0 1-1.562-1.56c0-.86.702-1.558 1.561-1.558z"/>
</svg>
