<svg xmlns="http://www.w3.org/2000/svg" width="27" height="25" viewBox="0 0 27 25">
    <g fill="none" fill-rule="evenodd">
        <path stroke="#6098D0" stroke-width="2" d="M1.706 20.953A.7.7 0 0 1 1 20.247c0-3.71 3.021-7.696 6.716-7.696h6.568c3.711 0 6.716 4.002 6.716 7.696a.7.7 0 0 1-.706.706H1.706zm9.261-10.066a4.961 4.961 0 0 1-4.95-4.951C6.016 3.218 8.232 1 10.966 1a4.94 4.94 0 0 1 4.951 4.936 4.952 4.952 0 0 1-4.95 4.951z"/>
        <g transform="translate(12 10)">
            <circle cx="7" cy="7" r="4.909" fill="#F9F9F9" stroke="#979797"/>
            <path fill="#6098D0" fill-rule="nonzero" stroke="#F9F9F9" stroke-width=".5" d="M7 0C3.12 0 0 3.12 0 7s3.12 7 7 7 7-3.12 7-7-3.118-7-7-7zm4.008 4.817L6.644 9.345a.248.248 0 0 1-.191.08c-.082 0-.163-.026-.191-.08L4.136 7.053 4.082 7A.294.294 0 0 1 4 6.81c0-.056.028-.136.082-.192l.381-.381c.11-.11.274-.11.382 0l.026.027 1.5 1.61a.133.133 0 0 0 .191 0l3.655-3.791h.027c.109-.11.273-.11.381 0l.382.381c.11.082.11.245.001.354z"/>
        </g>
    </g>
</svg>
