<?xml version="1.0" encoding="UTF-8"?>
<svg width="24px" height="27px" viewBox="0 0 24 27" version="1.1" xmlns="http://www.w3.org/2000/svg" xmlns:xlink="http://www.w3.org/1999/xlink">
    <!-- Generator: Sketch 50.2 (55047) - http://www.bohemiancoding.com/sketch -->
    <title>for-rent</title>
    <desc>Created with Sketch.</desc>
    <defs></defs>
    <g id="Wesite" stroke="none" stroke-width="1" fill="none" fill-rule="evenodd">
        <g id="MY-PROFILE-_REFREES" transform="translate(-345.000000, -417.000000)" fill="#46A98A" fill-rule="nonzero">
            <g id="FIRST-TIME" transform="translate(345.000000, 417.000000)">
                <g id="for-rent">
                    <path d="M21.5304828,2.41489655 L14.702069,2.41489655 L14.702069,1.0137931 C14.702069,0.734896552 14.4761379,0.508965517 14.1972414,0.508965517 L9.90703448,0.508965517 C9.62813793,0.508965517 9.4022069,0.734896552 9.4022069,1.0137931 L9.4022069,2.41489655 L2.5737931,2.41489655 C1.41186207,2.41489655 0.465931034,3.36082759 0.465931034,4.52275862 L0.465931034,15.8068966 C0.465931034,16.9688276 1.41186207,17.9147586 2.5737931,17.9147586 L9.4022069,17.9147586 L9.4022069,25.3688276 C9.4022069,25.6477241 9.62813793,25.8736552 9.90703448,25.8736552 L14.1972414,25.8736552 C14.4761379,25.8736552 14.702069,25.6477241 14.702069,25.3688276 L14.702069,17.9147586 L21.5304828,17.9147586 C22.6924138,17.9147586 23.6383448,16.9688276 23.6383448,15.8068966 L23.6383448,4.52275862 C23.6383448,3.36082759 22.6932414,2.41489655 21.5304828,2.41489655 Z M10.4126897,1.51944828 L13.6915862,1.51944828 L13.6915862,2.41489655 L10.4126897,2.41489655 L10.4126897,1.51944828 Z M13.6915862,24.8631724 L10.4135172,24.8631724 L10.4135172,17.9147586 L13.6915862,17.9147586 L13.6915862,24.8631724 Z M22.6286897,15.8068966 C22.6286897,16.4110345 22.1362759,16.9042759 21.5313103,16.9042759 L2.5737931,16.9042759 C1.96882759,16.9042759 1.47641379,16.4110345 1.47641379,15.8068966 L1.47641379,4.52275862 C1.47641379,3.91862069 1.96882759,3.42537931 2.5737931,3.42537931 L21.5304828,3.42537931 C22.1354483,3.42537931 22.6278621,3.91862069 22.6278621,4.52275862 L22.6278621,15.8068966 L22.6286897,15.8068966 Z" id="Shape" stroke="#46A98A" stroke-width="0.4"></path>
                    <path d="M12.8102069,19.1031724 C12.5304828,19.1031724 12.3045517,19.3291034 12.3045517,19.6088276 L12.3045517,19.8107586 C12.3045517,20.0896552 12.5304828,20.3155862 12.8102069,20.3155862 C13.0891034,20.3155862 13.3150345,20.0896552 13.3150345,19.8107586 L13.3150345,19.6088276 C13.3158621,19.3291034 13.0891034,19.1031724 12.8102069,19.1031724 Z" id="Shape"></path>
                    <path d="M12.8102069,20.7707586 C12.5304828,20.7707586 12.3045517,20.9966897 12.3045517,21.2755862 L12.3045517,23.9528276 C12.3045517,24.2325517 12.5304828,24.4584828 12.8102069,24.4584828 C13.0891034,24.4584828 13.3150345,24.2325517 13.3150345,23.9528276 L13.3150345,21.2755862 C13.3158621,20.9975172 13.0891034,20.7707586 12.8102069,20.7707586 Z" id="Shape"></path>
                    <path d="M9.85903448,5.81462069 L8.08386207,5.81462069 C7.91006897,5.81462069 7.73627586,5.89572414 7.73627586,6.05958621 L7.73627586,9.30786207 C7.73627586,9.47172414 7.93572414,9.55365517 8.13517241,9.55365517 C8.33462069,9.55365517 8.53406897,9.47172414 8.53406897,9.30786207 L8.53406897,7.98868966 L9.30703448,7.98868966 C9.47586207,7.98868966 9.54786207,7.82482759 9.54786207,7.68662069 C9.54786207,7.52358621 9.46096552,7.37462069 9.30703448,7.37462069 L8.53406897,7.37462069 L8.53406897,6.5097931 L9.85903448,6.5097931 C10.0129655,6.5097931 10.0998621,6.34675862 10.0998621,6.15724138 C10.0998621,5.99337931 10.0278621,5.81462069 9.85903448,5.81462069 Z" id="Shape"></path>
                    <path d="M11.9569655,5.8137931 C11.2510345,5.8137931 10.704,6.14151724 10.704,7.02124138 L10.704,8.37682759 C10.704,9.25655172 11.2510345,9.58427586 11.9569655,9.58427586 C12.6628966,9.58427586 13.2157241,9.25655172 13.2157241,8.37682759 L13.2157241,7.02124138 C13.2157241,6.14068966 12.6628966,5.8137931 11.9569655,5.8137931 Z M12.4171034,8.37682759 C12.4171034,8.7302069 12.2433103,8.88910345 11.9569655,8.88910345 C11.6706207,8.88910345 11.5017931,8.7302069 11.5017931,8.37682759 L11.5017931,7.02124138 C11.5017931,6.66786207 11.6706207,6.5097931 11.9569655,6.5097931 C12.2433103,6.5097931 12.4171034,6.66786207 12.4171034,7.02124138 L12.4171034,8.37682759 Z" id="Shape"></path>
                    <path d="M16.7031724,9.0777931 L16.0791724,7.94731034 C16.4375172,7.80910345 16.6982069,7.4822069 16.6982069,6.90868966 C16.6982069,6.07448276 16.1404138,5.8137931 15.4394483,5.8137931 L14.3801379,5.8137931 C14.232,5.8137931 14.1351724,5.92634483 14.1351724,6.05462069 L14.1351724,9.30786207 C14.1351724,9.47172414 14.3337931,9.55365517 14.5332414,9.55365517 C14.7326897,9.55365517 14.9321379,9.47172414 14.9321379,9.30786207 L14.9321379,8.07558621 L15.2697931,8.07558621 L15.9707586,9.43696552 C16.0270345,9.54455172 16.1246897,9.58510345 16.2264828,9.58510345 C16.4623448,9.58510345 16.728,9.36993103 16.728,9.17131034 C16.7296552,9.144 16.7238621,9.10841379 16.7031724,9.0777931 Z M15.4402759,7.46151724 L14.9337931,7.46151724 L14.9337931,6.5097931 L15.4402759,6.5097931 C15.7266207,6.5097931 15.9004138,6.62813793 15.9004138,6.98565517 C15.9004138,7.34317241 15.7266207,7.46151724 15.4402759,7.46151724 Z" id="Shape"></path>
                    <path d="M8.54234483,14.1806897 L7.91834483,13.0502069 C8.27668966,12.912 8.53737931,12.5851034 8.53737931,12.0115862 C8.53737931,11.1773793 7.97958621,10.9175172 7.27862069,10.9175172 L6.22013793,10.9175172 C6.07117241,10.9175172 5.97434483,11.030069 5.97434483,11.1575172 L5.97434483,14.4115862 C5.97434483,14.5754483 6.1737931,14.6573793 6.37324138,14.6573793 C6.57268966,14.6573793 6.77213793,14.5754483 6.77213793,14.4115862 L6.77213793,13.1793103 L7.1097931,13.1793103 L7.81075862,14.5398621 C7.86703448,14.6474483 7.96468966,14.6888276 8.06648276,14.6888276 C8.30234483,14.6888276 8.568,14.4736552 8.568,14.2742069 C8.568,14.2468966 8.5622069,14.2113103 8.54234483,14.1806897 Z M7.27862069,12.5644138 L6.77213793,12.5644138 L6.77213793,11.6135172 L7.27862069,11.6135172 C7.56496552,11.6135172 7.73875862,11.7310345 7.73875862,12.0885517 C7.73875862,12.446069 7.56496552,12.5644138 7.27862069,12.5644138 Z" id="Shape"></path>
                    <path d="M11.5398621,13.9613793 L10.1685517,13.9613793 L10.1685517,13.0915862 L10.9357241,13.0915862 C11.1045517,13.0915862 11.1765517,12.9277241 11.1765517,12.7895172 C11.1765517,12.6264828 11.0896552,12.4775172 10.9357241,12.4775172 L10.1685517,12.4775172 L10.1685517,11.6135172 L11.5398621,11.6135172 C11.6929655,11.6135172 11.7806897,11.4496552 11.7806897,11.2601379 C11.7806897,11.0962759 11.7095172,10.9175172 11.5398621,10.9175172 L9.71834483,10.9175172 C9.54455172,10.9175172 9.37075862,10.9994483 9.37075862,11.1633103 L9.37075862,14.4115862 C9.37075862,14.5754483 9.54455172,14.6573793 9.71834483,14.6573793 L11.5398621,14.6573793 C11.7086897,14.6573793 11.7806897,14.4777931 11.7806897,14.3147586 C11.7806897,14.1244138 11.6929655,13.9613793 11.5398621,13.9613793 Z" id="Shape"></path>
                    <path d="M14.7517241,10.9175172 C14.5531034,10.9175172 14.3536552,10.9886897 14.3536552,11.1575172 L14.3536552,12.897931 L13.5244138,11.3172414 C13.3307586,10.944 13.2231724,10.9183448 12.9368276,10.9183448 C12.7373793,10.9183448 12.537931,10.9953103 12.537931,11.1641379 L12.537931,14.4124138 C12.537931,14.5762759 12.7373793,14.6582069 12.9368276,14.6582069 C13.1354483,14.6582069 13.3348966,14.5762759 13.3348966,14.4124138 L13.3348966,12.6728276 L14.3073103,14.4430345 C14.4041379,14.6217931 14.568,14.6582069 14.7517241,14.6582069 C14.9511724,14.6582069 15.1506207,14.5762759 15.1506207,14.4124138 L15.1506207,11.1583448 C15.1506207,10.9886897 14.9511724,10.9175172 14.7517241,10.9175172 Z" id="Shape"></path>
                    <path d="M18.3268966,10.9175172 L16.1172414,10.9175172 C15.9484138,10.9175172 15.8772414,11.102069 15.8772414,11.270069 C15.8772414,11.4645517 15.9633103,11.6333793 16.1172414,11.6333793 L16.824,11.6333793 L16.824,14.4107586 C16.824,14.5746207 17.0226207,14.6565517 17.222069,14.6565517 C17.4215172,14.6565517 17.6209655,14.5746207 17.6209655,14.4107586 L17.6209655,11.6333793 L18.3268966,11.6333793 C18.4808276,11.6333793 18.5677241,11.4645517 18.5677241,11.270069 C18.5677241,11.102069 18.4957241,10.9175172 18.3268966,10.9175172 Z" id="Shape"></path>
                </g>
            </g>
        </g>
    </g>
</svg>