<svg xmlns="http://www.w3.org/2000/svg" width="25" height="25" viewBox="0 0 25 25">
    <g fill="none" fill-rule="evenodd" stroke="#706F6F">
        <path stroke-linecap="round" stroke-linejoin="round" stroke-width="2" d="M17.395 3.07h-4.177m-1.392 0H7.649m-1.392 0H3.24c-1.024 0-1.856.83-1.856 1.856V21.4c0 1.025.832 1.857 1.856 1.857h18.561a1.856 1.856 0 0 0 1.857-1.857V4.926c0-1.026-.831-1.856-1.857-1.856h-3.016"/>
        <path stroke-width="1.5" d="M7.008 9.342v-.75l-.75.75h.75zm1.284 0h.75l-.75-.75v.75zm0 .589v.75l.75-.75h-.75zm-1.284 0h-.75l.75.75v-.75zM7.008 13.565v-.75l-.75.75h.75zm1.284 0h.75l-.75-.75v.75zm0 .588v.75l.75-.75h-.75zm-1.284 0h-.75l.75.75v-.75zM7.008 17.788v-.75l-.75.75h.75zm1.284 0h.75l-.75-.75v.75zm0 .588v.75l.75-.75h-.75zm-1.284 0h-.75l.75.75v-.75zM11.88 17.788v-.75l-.75.75h.75zm1.284 0h.75l-.75-.75v.75zm0 .588v.75l.75-.75h-.75zm-1.284 0h-.75l.75.75v-.75zM11.88 13.565v-.75l-.75.75h.75zm1.284 0h.75l-.75-.75v.75zm0 .588v.75l.75-.75h-.75zm-1.284 0h-.75l.75.75v-.75zM11.88 9.342v-.75l-.75.75h.75zm1.284 0h.75l-.75-.75v.75zm0 .589v.75l.75-.75h-.75zm-1.284 0h-.75l.75.75v-.75zM16.753 17.788v-.75l-.75.75h.75zm1.284 0h.75l-.75-.75v.75zm0 .588v.75l.75-.75h-.75zm-1.284 0h-.75l.75.75v-.75zM16.753 13.565v-.75l-.75.75h.75zm1.284 0h.75l-.75-.75v.75zm0 .588v.75l.75-.75h-.75zm-1.284 0h-.75l.75.75v-.75zM16.753 9.342v-.75l-.75.75h.75zm1.284 0h.75l-.75-.75v.75zm0 .589v.75l.75-.75h-.75zm-1.284 0h-.75l.75.75v-.75z"/>
        <path stroke-linecap="round" stroke-linejoin="round" stroke-width="2" d="M18.044 1v1.704M12.522 1v1.704M6.953 1v1.704"/>
    </g>
</svg>
