<svg xmlns="http://www.w3.org/2000/svg" width="31" height="31" viewBox="0 0 31 31">
    <g fill="none" fill-rule="evenodd" stroke="#767676" stroke-linecap="round" stroke-linejoin="round" stroke-width="1.5">
        <path d="M14.321 10.263h1.11a6.742 6.742 0 0 0 1.004 2.426l-.786.786a.72.72 0 0 0 0 1.017l.854.853a.72.72 0 0 0 1.016 0l.786-.786c.723.487 1.546.83 2.425 1.005v1.109c0 .399.325.717.717.717h1.21a.718.718 0 0 0 .717-.717v-1.11A6.757 6.757 0 0 0 25.8 14.56l.785.786a.72.72 0 0 0 1.016 0l.855-.853a.72.72 0 0 0 0-1.017l-.786-.786a6.68 6.68 0 0 0 1.004-2.426h1.11a.717.717 0 0 0 .716-.716V8.343a.717.717 0 0 0-.716-.716h-1.11A6.748 6.748 0 0 0 27.67 5.2l.786-.786a.72.72 0 0 0 0-1.016l-.862-.854a.72.72 0 0 0-1.016 0l-.785.786a6.683 6.683 0 0 0-2.425-1.005v-1.11A.718.718 0 0 0 22.651.5h-1.21a.718.718 0 0 0-.718.717v1.109A6.74 6.74 0 0 0 18.3 3.33l-.78-.786a.72.72 0 0 0-1.016 0l-.854.854a.72.72 0 0 0 0 1.016l.786.786a6.645 6.645 0 0 0-1.004 2.426h-1.11a.718.718 0 0 0-.718.716v1.21c0 .394.32.71.718.71z"/>
        <path d="M10.917 9.204l-.586-1.409a1.555 1.555 0 0 0-2.026-.842l-1.534.636c-.38.155-.68.456-.842.842a1.574 1.574 0 0 0 0 1.191l.412.991a9.78 9.78 0 0 0-2.064 2.064l-.992-.412a1.553 1.553 0 0 0-2.032.841l-.636 1.535a1.571 1.571 0 0 0 0 1.19c.155.381.455.68.842.842l.991.412a9.58 9.58 0 0 0 0 2.918l-.991.412a1.553 1.553 0 0 0-.842 2.025l.636 1.515a1.553 1.553 0 0 0 2.026.842l.992-.41a9.822 9.822 0 0 0 2.064 2.062l-.412.991a1.576 1.576 0 0 0 0 1.192c.156.38.455.68.842.842l1.534.635a1.553 1.553 0 0 0 2.026-.842l.41-.992a9.455 9.455 0 0 0 2.918 0l.412.992c.25.598.831.96 1.434.96.2 0 .4-.038.593-.118l1.534-.635a1.558 1.558 0 0 0 .842-2.027l-.412-.992a9.794 9.794 0 0 0 2.063-2.063l.992.412a1.55 1.55 0 0 0 2.027-.842l.635-1.534a1.553 1.553 0 0 0-.841-2.033l-1.41-.586"/>
        <path d="M12.157 13.543h-.006a4.965 4.965 0 0 0-3.516 1.484 4.935 4.935 0 0 0-1.434 3.535 4.966 4.966 0 0 0 1.483 3.517 4.953 4.953 0 0 0 3.498 1.434h.038a4.97 4.97 0 0 0 3.517-1.484 4.942 4.942 0 0 0 1.433-3.536M22.052 11.437a2.494 2.494 0 1 1 0-4.988 2.494 2.494 0 0 1 0 4.988z"/>
    </g>
</svg>
