<?xml version="1.0" encoding="UTF-8"?>
<!-- Generator: Adobe Illustrator 15.0.0, SVG Export Plug-In . SVG Version: 6.00 Build 0)  -->
<!DOCTYPE svg PUBLIC "-//W3C//DTD SVG 1.1//EN" "http://www.w3.org/Graphics/SVG/1.1/DTD/svg11.dtd">
<svg version="1.1" id="Layer_1" xmlns="http://www.w3.org/2000/svg" xmlns:xlink="http://www.w3.org/1999/xlink" x="0px" y="0px" width="26.504px" height="17.209px" viewBox="3.246 28.198 26.504 17.209" enable-background="new 3.246 28.198 26.504 17.209" xml:space="preserve">
<g id="Layer_1_1_">
</g>
<g id="Layer_2">
	<g>
		<path fill="#757575" d="M15.748,43.789c-0.921,0-1.876-0.102-2.86-0.332l0.227-0.974c7.186,1.676,12.975-4.219,14.279-5.681    c-1.427-1.555-2.899-2.815-4.385-3.752l0.533-0.847c1.666,1.053,3.313,2.484,4.893,4.257l0.279,0.314l-0.263,0.33    C28.21,37.411,23.034,43.788,15.748,43.789z"/>
	</g>
	<g>
		<path fill="#757575" d="M8.386,41.516c-1.665-1.063-3.303-2.517-4.869-4.319l-0.271-0.312l0.256-0.325    c0.066-0.083,6.658-8.304,15.428-6.316l-0.221,0.977c-7.21-1.638-12.878,4.197-14.153,5.643c1.416,1.582,2.884,2.863,4.369,3.811    L8.386,41.516z"/>
	</g>
	<g>
		
			<rect x="15.304" y="25.458" transform="matrix(-0.712 -0.7022 0.7022 -0.712 1.6405 74.2789)" fill="#757575" width="1.501" height="22.69"/>
	</g>
	<g>
		<path fill="#757575" d="M16.059,40.803v-1c1.654,0,3-1.347,3-3h1C20.059,39.008,18.264,40.803,16.059,40.803z"/>
	</g>
	<g>
		<path fill="#757575" d="M13.059,36.802h-1c0-2.206,1.794-4,4-4v1C14.404,33.803,13.059,35.148,13.059,36.802z"/>
	</g>
	<g>
		<path fill="#757575" d="M15.712,71.784c-4.296,0-8.399-2.216-12.195-6.587l-0.271-0.313l0.256-0.325    c0.213-0.271,5.305-6.63,12.643-6.63c4.293,0,8.429,2.197,12.291,6.531l0.279,0.315l-0.263,0.329    C28.234,65.378,23.048,71.784,15.712,71.784z M4.556,64.863c3.517,3.931,7.268,5.922,11.157,5.922    c5.941,0,10.538-4.697,11.684-5.979c-3.578-3.898-7.361-5.874-11.25-5.874C10.191,58.93,5.675,63.593,4.556,64.863z"/>
	</g>
	<g>
		<path fill="#757575" d="M16.059,68.702c-1.931,0-3.5-1.569-3.5-3.5c0-1.93,1.57-3.5,3.5-3.5c1.93,0,3.5,1.57,3.5,3.5    C19.559,67.133,17.988,68.702,16.059,68.702z M16.059,62.702c-1.378,0-2.5,1.121-2.5,2.5s1.121,2.5,2.5,2.5    c1.379,0,2.5-1.121,2.5-2.5S17.438,62.702,16.059,62.702z"/>
	</g>
</g>
</svg>