<svg xmlns="http://www.w3.org/2000/svg" width="26" height="21" viewBox="0 0 26 21">
    <g fill="#46A98A" fill-rule="nonzero">
        <path d="M21.378 15.126H.76a.693.693 0 0 0-.694.694v4.124c0 .384.31.694.694.694h20.618a.693.693 0 0 0 .693-.694V15.82a.693.693 0 0 0-.693-.694zM4.938 19.25H1.453v-2.736h3.485v2.736zm12.596 0H6.326v-2.736h11.208v2.736zm3.149 0h-1.762v-2.736h1.762v2.736zM23.46 6.542c-.837-.837-1.24-1.683-1.201-2.515.064-1.256 1.127-2.142 1.146-2.161a.694.694 0 0 0-.871-1.083c-.063.05-1.56 1.271-1.663 3.155-.069 1.245.473 2.451 1.604 3.583.816.817 1.221 1.669 1.201 2.535-.03 1.412-1.167 2.466-1.177 2.476-.285.256-.32.709-.049.979.349.35.847.172.979.049.063-.059 1.584-1.447 1.634-3.46.035-1.254-.506-2.455-1.603-3.558z"/>
        <path d="M20.295 6.542c-.837-.837-1.24-1.683-1.201-2.515.064-1.256 1.127-2.142 1.147-2.161A.695.695 0 0 0 19.37.783c-.064.05-1.561 1.271-1.664 3.155-.069 1.245.473 2.451 1.604 3.583.822.822 1.226 1.674 1.206 2.54-.029 1.412-1.167 2.466-1.177 2.476-.285.256-.319.709-.049.979.35.35.847.172.979.05.063-.06 1.585-1.447 1.634-3.461.035-1.264-.506-2.465-1.608-3.563z"/>
    </g>
</svg>
